<?xml version="1.0" standalone="no"?>
<!DOCTYPE svg PUBLIC "-//W3C//DTD SVG 20010904//EN"
 "http://www.w3.org/TR/2001/REC-SVG-20010904/DTD/svg10.dtd">
<svg version="1.0" xmlns="http://www.w3.org/2000/svg"
 width="512.000000pt" height="512.000000pt" viewBox="0 0 512.000000 512.000000"
 preserveAspectRatio="xMidYMid meet">

<g transform="translate(0.000000,512.000000) scale(0.100000,-0.100000)"
fill="#000000" stroke="none">
<path d="M540 4668 c-25 -14 -58 -44 -75 -67 -27 -39 -30 -50 -30 -120 0 -68
3 -82 27 -117 15 -21 899 -910 1965 -1975 1590 -1589 1945 -1939 1977 -1949
95 -30 201 5 255 86 30 43 39 133 21 190 -10 32 -360 387 -1949 1977 -1065
1066 -1953 1950 -1975 1964 -56 40 -153 44 -216 11z"/>
<path d="M3643 4585 c-138 -25 -294 -94 -385 -170 -18 -15 -239 -226 -491
-469 -315 -304 -464 -454 -477 -482 -67 -137 39 -305 192 -304 76 1 115 28
332 239 115 110 213 201 217 201 4 0 139 -136 300 -302 l292 -303 -206 -200
c-135 -131 -212 -214 -222 -238 -55 -132 32 -283 170 -295 108 -9 104 -12 599
467 248 241 472 464 498 496 59 73 120 195 150 300 19 68 23 102 22 225 0 128
-4 156 -27 233 -49 159 -115 265 -240 383 -195 186 -462 267 -724 219z m331
-458 c89 -45 155 -112 199 -205 30 -63 32 -74 32 -177 0 -103 -2 -114 -32
-178 -25 -52 -57 -93 -136 -174 l-103 -105 -298 308 -298 308 89 87 c152 147
227 182 381 175 82 -3 101 -7 166 -39z"/>
<path d="M1611 2815 c-57 -33 -595 -556 -610 -593 -25 -64 -341 -1262 -341
-1296 0 -107 98 -206 205 -206 63 0 1289 284 1325 307 57 36 629 595 646 631
31 65 30 124 -1 188 -48 97 -147 140 -251 109 -46 -13 -78 -41 -328 -282
l-278 -268 -401 -93 c-220 -51 -401 -91 -403 -90 -1 2 46 182 105 400 l106
398 245 235 c145 139 254 252 268 277 48 90 20 209 -66 271 -36 26 -54 32
-110 35 -57 2 -73 -1 -111 -23z"/>
</g>
</svg>
